<svg xmlns="http://www.w3.org/2000/svg" width="68" height="68" viewBox="0 0 68 68">
  <g fill="none" fill-rule="evenodd">
    <path fill="#FFF" d="M24.220648,19.349142 L30.6414263,19.8703758 L25.3895711,24.4073622 C23.7496012,26.3761164 23.5753298,27.9857896 24.8667566,29.2363818 C26.1581834,30.4869741 28.2690683,29.8055633 31.1994112,27.1921496 L34.1292272,24.4073622 L37.0942136,24.4073622 L37.0942136,29.2363818 L50.0195469,42.776605 L51.0379088,46.0537785 L48.7664518,48.2833471 L48.7664518,49.6589459 L47.7042256,53.7193531 L44.5926298,53.7193531 L43.1040114,56.2049941 L40.4571397,56.7503335 L38.703755,56.2049941 L36.1292,58.7755974 L34.1292272,58.7755974 L15.2245244,40.2949157 L15.2245244,37.0548886 L10.8349376,32.4222702 L24.220648,19.349142 Z"/>
    <path fill="#98DAF5" d="M44.0057901,19.0243768 L30.7627619,19.0243768 L24.8901544,25.1329636 C23.7690341,27.1189044 23.7690341,28.5616557 24.8901544,29.4612176 C26.0112747,30.3607795 27.447034,30.186854 29.1974324,28.9394411 L34.0275521,24.5254781 L36.9913049,24.031399 L36.9913049,30.2130739 L49.6260308,42.4567952 L54.2545029,38.119692 L54.2545029,35.6871386 L57.6188469,33.0110676 L44.0057901,19.0243768 Z"/>
    <path stroke="#1C5A74" stroke-linecap="round" stroke-width="2" d="M33,42 L44,53 C44,53 45,54 46,54 C47.656,54 49,52.656 49,51 C49,50 48,49 48,49 L37,38"/>
    <path stroke="#1C5A74" stroke-linecap="round" stroke-width="2" d="M43,52 C43,52 44,53 44,54 C44,55.656 42.656,57 41,57 C40,57 39,56 39,56 L29,46"/>
    <polygon fill="#98DAF5" points="16.416 41.335 33.051 57.93 30.102 59.608 14.776 43.927"/>
    <path stroke="#1C5A74" stroke-linecap="round" stroke-width="2" d="M37 54C37 54 38 55 38 56 38 57.656 36.656 59 35 59 34 59 33 58 33 58L15 40 15 37 11 33M20 46C20 46 19 47 18 47 16.344 47 15 45.656 15 44 15 43 16 42 16 42"/>
    <path stroke="#1C5A74" stroke-linecap="round" stroke-width="2" d="M24,50 C24,50 23,51 22,51 C20.344,51 19,49.656 19,48 C19,47 20,46 20,46"/>
    <path stroke="#1C5A74" stroke-linecap="round" stroke-width="2" d="M28,54 C28,54 27,55 26,55 C24.344,55 23,53.656 23,52 C23,51 24,50 24,50"/>
    <path stroke="#1C5A74" stroke-linecap="round" stroke-width="2" d="M32 58C32 58 31 59 30 59 28.344 59 27 57.656 27 56 27 55 28 54 28 54M31 19L25 25C25 25 24 26 24 27 24 28.656 25.344 30 27 30 28 30 29 29 29 29L34 24 37 24 37 30 50 43C50 43 51 44 51 45 51 46.656 49.656 48 48 48 47 48 46 47 46 47"/>
    <path stroke="#1C5A74" stroke-width="2" d="M45,29 C45,30.656 43.656,32 42,32 L39,32"/>
    <polyline stroke="#1C5A74" stroke-linecap="round" stroke-linejoin="round" stroke-width="2" points="65 28 60 33 58 33 42 17 42 15 52 5"/>
    <polyline stroke="#1C5A74" stroke-linecap="round" stroke-linejoin="round" stroke-width="2" points="3 28 8 33 10 33 26 17 26 15 16 5"/>
    <path stroke="#1C5A74" stroke-linecap="round" stroke-width="2" d="M59 26L61 24M7 24L9 26"/>
    <path stroke="#1C5A74" stroke-width="2" d="M24,19 L44,19"/>
    <polyline stroke="#1C5A74" stroke-linecap="round" stroke-width="2" points="57 33 54 36 54 38 50 42"/>
  </g>
</svg>
