<svg xmlns="http://www.w3.org/2000/svg" width="68" height="68" viewBox="0 0 68 68">
  <g fill="none" fill-rule="evenodd">
    <circle cx="19.5" cy="38.5" r="16.5" fill="#FFF"/>
    <circle cx="48.5" cy="38.5" r="16.5" fill="#FFF"/>
    <rect width="50" height="24" x="9" y="19" fill="#98DAF5"/>
    <path stroke="#1C5A74" stroke-width="2" d="M30 51.6191C27.133 54.3341 23.261 56.0001 19 56.0001 10.163 56.0001 3 48.8371 3 40.0001 3 36.5181 4.112 33.2971 6 30.6711M61.999 30.6689C63.888 33.2959 65 36.5179 65 39.9999 65 48.8369 57.837 55.9999 49 55.9999 44.739 55.9999 40.867 54.3349 38 51.6189"/>
    <polyline stroke="#1C5A74" stroke-width="2" points="31 19 59 19 59 40"/>
    <polyline stroke="#1C5A74" stroke-width="2" points="9 40 9 19 29 19"/>
    <path stroke="#1C5A74" stroke-width="2" d="M58 53C55 61 55 66 55 66M10 53C13 61 13 66 13 66M17 43C17 44.657 15.657 46 14 46 12.343 46 11 45 11 43L57 43C57 45 55.657 46 54 46 52.343 46 51 44.657 51 43M44 12C42 16 42 19 42 19M24 12C26 16 26 19 26 19"/>
    <path stroke="#1C5A74" stroke-width="2" d="M48,5 C48,5 47.031,15 34,15 C20.969,15 20,5 20,5"/>
    <path stroke="#1C5A74" stroke-width="2" d="M35 7L33 7C31.9 7 31 6.1 31 5 31 3.9 31.9 3 33 3L35 3C36.1 3 37 3.9 37 5 37 6.1 36.1 7 35 7zM27 27L19 35M27 35L19 27M38 27L30 35M38 35L30 27M49 27L41 35M49 35L41 27"/>
  </g>
</svg>
