<svg xmlns="http://www.w3.org/2000/svg" width="68" height="68" viewBox="0 0 68 68">
  <g fill="none" fill-rule="evenodd">
    <path fill="#98DAF5" d="M34.1297913,58.9759802 C34.5780845,58.9759802 35.9758077,52.2165195 39.0504983,50.2590558 C41.1002921,48.95408 43.2227143,47.8340147 45.4177651,46.89886 L50.1686717,46.89886 L49.7887494,45 L18.3926949,45.5261811 L18,46.89886 L25.2906506,47.2369582 C27.5852108,48.0849588 29.3308831,49.3850092 30.5276674,51.1371095 C32.3228439,53.7652599 33.681498,58.9759802 34.1297913,58.9759802 Z"/>
    <path stroke="#1C5A74" stroke-width="2" d="M47,17 C47,21 45,25 45,32 C45,40 52,46 52,53 C52,61 51,65 51,66"/>
    <path stroke="#1C5A74" stroke-linejoin="round" stroke-width="2" d="M31.0156 11.2744C29.5496 12.9454 27.3986 14.0004 24.9996 14.0004 20.5816 14.0004 16.9996 11.4184 16.9996 7.0004 16.9996 7.0004 18.0706 3.0004 18.0706 2.0004M37 11.2744C38.466 12.9454 40.617 14.0004 43.016 14.0004 47.434 14.0004 51 11.4184 51 7.0004 51 7.0004 49.945 3.0004 49.945 2.0004"/>
    <path stroke="#1C5A74" stroke-width="2" d="M21 17C21 21 23 25 23 32 23 40 16 46 16 53 16 61 17 65 17 66M34 61.9995L34 65.9995M51 30.9995L51 32.9995M55 30.9995L55 32.9995M59 30.9995L59 32.9995M9 30.9995L9 32.9995M13 30.9995L13 32.9995M17 30.9995L17 32.9995"/>
    <path stroke="#1C5A74" stroke-linejoin="round" stroke-width="2" d="M18,46.9995 L21,46.9995 C30,46.9995 33,55.9995 33,58.9995 L35,58.9995 C35,55.9995 38,46.9995 47,46.9995 L50,46.9995"/>
  </g>
</svg>
