<svg xmlns="http://www.w3.org/2000/svg" width="68" height="68" viewBox="0 0 68 68">
  <g fill="none" fill-rule="evenodd">
    <circle cx="34.5" cy="34.5" r="27.5" fill="#FFF"/>
    <circle cx="34.5" cy="34.5" r="20.5" fill="#98DAF5"/>
    <path stroke="#1C5A74" stroke-width="2" d="M15.0215 25C18.3915 17.905 25.6235 13 34.0005 13 42.3765 13 49.6085 17.905 52.9785 25M52.9785 43C49.6085 50.095 42.3765 55 33.9995 55 25.6245 55 18.3945 50.097 15.0225 43.004"/>
    <path stroke="#1C5A74" stroke-width="2" d="M37 6C51.056 7.494 62 19.548 62 34 62 43.515 57.254 51.921 50 56.98M31 62C16.943 60.506 6 48.453 6 34 6 24.484 10.746 16.078 18 11.019M37 6C37 7.656 35.656 9 34 9 32.344 9 31 7.656 31 6 31 4.344 32.344 3 34 3 35.656 3 37 4.344 37 6zM37 62C37 63.656 35.656 65 34 65 32.344 65 31 63.656 31 62 31 60.344 32.344 59 34 59 35.656 59 37 60.344 37 62zM16 34L52 34"/>
    <path stroke="#1C5A74" stroke-width="2" d="M49 19.1387C45.523 21.4887 40.098 22.9997 34 22.9997 27.902 22.9997 22.477 21.4887 19 19.1387M19 48.8613C22.477 46.5113 27.902 45.0003 34 45.0003 40.098 45.0003 45.523 46.5113 49 48.8613M16 34C16 35.656 14.656 37 13 37 11.344 37 10 35.656 10 34 10 32.344 11.344 31 13 31 14.656 31 16 32.344 16 34zM58 34C58 35.656 56.656 37 55 37 53.344 37 52 35.656 52 34 52 32.344 53.344 31 55 31 56.656 31 58 32.344 58 34z"/>
    <path stroke="#1C5A74" stroke-width="2" d="M41,34 C41,45.598 37.866,55 34,55 C30.134,55 27,45.598 27,34 C27,22.402 30.134,13 34,13 C37.866,13 41,22.402 41,34 Z"/>
  </g>
</svg>
